<svg width="22" height="21" viewBox="0 0 22 21" fill="none" xmlns="http://www.w3.org/2000/svg">
<path d="M3.77348 17.7188H5.79304C5.97917 17.7188 6.12963 17.5721 6.12963 17.3906V15.75C6.12963 15.5685 5.97917 15.4219 5.79304 15.4219H3.77348C3.58735 15.4219 3.43689 15.5685 3.43689 15.75V17.3906C3.43689 17.5721 3.58735 17.7188 3.77348 17.7188ZM4.11008 16.0781H5.45645V17.0625H4.11008V16.0781Z" fill="#231F20"/>
<path d="M7.81254 17.7188H9.8321C10.0182 17.7188 10.1687 17.5721 10.1687 17.3906V15.75C10.1687 15.5685 10.0182 15.4219 9.8321 15.4219H7.81254C7.62641 15.4219 7.47595 15.5685 7.47595 15.75V17.3906C7.47595 17.5721 7.62641 17.7188 7.81254 17.7188ZM8.14914 16.0781H9.49551V17.0625H8.14914V16.0781Z" fill="#231F20"/>
<path d="M11.8517 17.7188H13.8713C14.0574 17.7188 14.2079 17.5721 14.2079 17.3906V15.75C14.2079 15.5685 14.0574 15.4219 13.8713 15.4219H11.8517C11.6656 15.4219 11.5151 15.5685 11.5151 15.75V17.3906C11.5151 17.5721 11.6656 17.7188 11.8517 17.7188ZM12.1883 16.0781H13.5347V17.0625H12.1883V16.0781Z" fill="#231F20"/>
<path d="M3.77348 14.1094H5.79304C5.97917 14.1094 6.12963 13.9627 6.12963 13.7812V12.1406C6.12963 11.9592 5.97917 11.8125 5.79304 11.8125H3.77348C3.58735 11.8125 3.43689 11.9592 3.43689 12.1406V13.7812C3.43689 13.9627 3.58735 14.1094 3.77348 14.1094ZM4.11008 12.4688H5.45645V13.4531H4.11008V12.4688Z" fill="#231F20"/>
<path d="M7.81254 14.1094H9.8321C10.0182 14.1094 10.1687 13.9627 10.1687 13.7812V12.1406C10.1687 11.9592 10.0182 11.8125 9.8321 11.8125H7.81254C7.62641 11.8125 7.47595 11.9592 7.47595 12.1406V13.7812C7.47595 13.9627 7.62641 14.1094 7.81254 14.1094ZM8.14914 12.4688H9.49551V13.4531H8.14914V12.4688Z" fill="#231F20"/>
<path d="M11.8517 14.1094H13.8713C14.0574 14.1094 14.2079 13.9627 14.2079 13.7812V12.1406C14.2079 11.9592 14.0574 11.8125 13.8713 11.8125H11.8517C11.6656 11.8125 11.5151 11.9592 11.5151 12.1406V13.7812C11.5151 13.9627 11.6656 14.1094 11.8517 14.1094ZM12.1883 12.4688H13.5347V13.4531H12.1883V12.4688Z" fill="#231F20"/>
<path d="M15.8908 14.1094H17.9103C18.0965 14.1094 18.2469 13.9627 18.2469 13.7812V12.1406C18.2469 11.9592 18.0965 11.8125 17.9103 11.8125H15.8908C15.7047 11.8125 15.5542 11.9592 15.5542 12.1406V13.7812C15.5542 13.9627 15.7047 14.1094 15.8908 14.1094ZM16.2274 12.4688H17.5738V13.4531H16.2274V12.4688Z" fill="#231F20"/>
<path d="M3.77348 10.5H5.79304C5.97917 10.5 6.12963 10.3533 6.12963 10.1719V8.53125C6.12963 8.3498 5.97917 8.20312 5.79304 8.20312H3.77348C3.58735 8.20312 3.43689 8.3498 3.43689 8.53125V10.1719C3.43689 10.3533 3.58735 10.5 3.77348 10.5ZM4.11008 8.85938H5.45645V9.84375H4.11008V8.85938Z" fill="#231F20"/>
<path d="M7.81254 10.5H9.8321C10.0182 10.5 10.1687 10.3533 10.1687 10.1719V8.53125C10.1687 8.3498 10.0182 8.20312 9.8321 8.20312H7.81254C7.62641 8.20312 7.47595 8.3498 7.47595 8.53125V10.1719C7.47595 10.3533 7.62641 10.5 7.81254 10.5ZM8.14914 8.85938H9.49551V9.84375H8.14914V8.85938Z" fill="#231F20"/>
<path d="M11.8517 10.5H13.8713C14.0574 10.5 14.2079 10.3533 14.2079 10.1719V8.53125C14.2079 8.3498 14.0574 8.20312 13.8713 8.20312H11.8517C11.6656 8.20312 11.5151 8.3498 11.5151 8.53125V10.1719C11.5151 10.3533 11.6656 10.5 11.8517 10.5ZM12.1883 8.85938H13.5347V9.84375H12.1883V8.85938Z" fill="#231F20"/>
<path d="M15.8908 10.5H17.9103C18.0965 10.5 18.2469 10.3533 18.2469 10.1719V8.53125C18.2469 8.3498 18.0965 8.20312 17.9103 8.20312H15.8908C15.7047 8.20312 15.5542 8.3498 15.5542 8.53125V10.1719C15.5542 10.3533 15.7047 10.5 15.8908 10.5ZM16.2274 8.85938H17.5738V9.84375H16.2274V8.85938Z" fill="#231F20"/>
<path d="M20.2665 1.3125H17.9103V0.984375C17.9103 0.440672 17.4583 0 16.9006 0C16.3428 0 15.8908 0.440672 15.8908 0.984375V1.3125H5.793V0.984375C5.793 0.440672 5.34096 0 4.78322 0C4.22549 0 3.77344 0.440672 3.77344 0.984375V1.3125H1.41729C0.673087 1.3125 0.0709229 1.89952 0.0709229 2.625V19.6875C0.0709229 20.413 0.673087 21 1.41729 21H20.2665C21.0107 21 21.6129 20.413 21.6129 19.6875V2.625C21.6129 1.89952 21.0107 1.3125 20.2665 1.3125ZM16.564 0.984375C16.564 0.802922 16.7144 0.65625 16.9006 0.65625C17.0867 0.65625 17.2372 0.802922 17.2372 0.984375V1.96875V3.28125C17.2372 3.4627 17.0867 3.60938 16.9006 3.60938C16.7144 3.60938 16.564 3.4627 16.564 3.28125V1.96875V0.984375ZM4.44663 0.984375C4.44663 0.802922 4.59709 0.65625 4.78322 0.65625C4.96936 0.65625 5.11981 0.802922 5.11981 0.984375V1.96875V3.28125C5.11981 3.4627 4.96936 3.60938 4.78322 3.60938C4.59709 3.60938 4.44663 3.4627 4.44663 3.28125V1.96875V0.984375ZM20.9397 19.6875C20.9397 20.0497 20.6381 20.3438 20.2665 20.3438H1.41729C1.0457 20.3438 0.744108 20.0497 0.744108 19.6875V5.57812H20.9397V19.6875ZM20.9397 4.92188H0.744108V2.625C0.744108 2.26275 1.0457 1.96875 1.41729 1.96875H3.77344V3.28125C3.77344 3.82495 4.22549 4.26562 4.78322 4.26562C5.34096 4.26562 5.793 3.82495 5.793 3.28125V1.96875H15.8908V3.28125C15.8908 3.82495 16.3428 4.26562 16.9006 4.26562C17.4583 4.26562 17.9103 3.82495 17.9103 3.28125V1.96875H20.2665C20.6381 1.96875 20.9397 2.26275 20.9397 2.625V4.92188Z" fill="#231F20"/>
</svg>
