<svg width="16" height="18" viewBox="0 0 16 18" fill="none" xmlns="http://www.w3.org/2000/svg">
<path d="M13.2875 0.506348H2.7125C1.75625 0.506348 0.96875 1.29385 0.96875 2.2501V15.7501C0.96875 16.7063 1.75625 17.522 2.74063 17.522H13.3156C14.2719 17.522 15.0875 16.7345 15.0875 15.7501V2.2501C15.0313 1.29385 14.2438 0.506348 13.2875 0.506348ZM13.7656 15.7501C13.7656 16.0313 13.5406 16.2563 13.2594 16.2563H2.7125C2.43125 16.2563 2.20625 16.0313 2.20625 15.7501V2.2501C2.20625 1.96885 2.43125 1.74385 2.7125 1.74385H13.2875C13.5688 1.74385 13.7938 1.96885 13.7938 2.2501V15.7501H13.7656Z" fill="#3C50E0"/>
<path d="M11.797 2.61572H8.73135C8.2251 2.61572 7.80322 3.0376 7.80322 3.54385V7.25635C7.80322 7.7626 8.2251 8.18447 8.73135 8.18447H11.797C12.3032 8.18447 12.7251 7.7626 12.7251 7.25635V3.51572C12.697 3.0376 12.3032 2.61572 11.797 2.61572ZM11.4313 6.89072H9.06885V3.88135H11.4313V6.89072Z" fill="#3C50E0"/>
<path d="M3.97822 4.35938H6.03135C6.36885 4.35938 6.67822 4.07812 6.67822 3.7125C6.67822 3.34687 6.39697 3.09375 6.03135 3.09375H3.9501C3.6126 3.09375 3.30322 3.375 3.30322 3.74063C3.30322 4.10625 3.6126 4.35938 3.97822 4.35938Z" fill="#3C50E0"/>
<path d="M3.97822 7.93145H6.03135C6.36885 7.93145 6.67822 7.65019 6.67822 7.28457C6.67822 6.91895 6.39697 6.6377 6.03135 6.6377H3.9501C3.6126 6.6377 3.30322 6.91895 3.30322 7.28457C3.30322 7.65019 3.6126 7.93145 3.97822 7.93145Z" fill="#3C50E0"/>
<path d="M12.0782 10.2375H3.97817C3.64067 10.2375 3.3313 10.5188 3.3313 10.8844C3.3313 11.25 3.61255 11.5313 3.97817 11.5313H12.0782C12.4157 11.5313 12.725 11.25 12.725 10.8844C12.725 10.5188 12.4157 10.2375 12.0782 10.2375Z" fill="#3C50E0"/>
<path d="M12.0782 13.8096H3.97817C3.64067 13.8096 3.3313 14.0908 3.3313 14.4564C3.3313 14.8221 3.61255 15.1033 3.97817 15.1033H12.0782C12.4157 15.1033 12.725 14.8221 12.725 14.4564C12.725 14.0908 12.4157 13.8096 12.0782 13.8096Z" fill="#3C50E0"/>
</svg>
