<svg width="5" height="23" viewBox="0 0 5 23" fill="none" xmlns="http://www.w3.org/2000/svg">
<path d="M2.5 3.94732C3.88614 3.94732 5 3.06797 5 1.97366C5 0.879354 3.88614 0 2.5 0C1.11386 0 0 0.879354 0 1.97366C0 3.06797 1.11386 3.94732 2.5 3.94732ZM2.5 13.4639C3.88614 13.4639 5 12.5845 5 11.4902C5 10.3959 3.88614 9.51657 2.5 9.51657C1.11386 9.51657 0 10.3959 0 11.4902C0 12.5845 1.11386 13.4639 2.5 13.4639ZM2.5 23C3.88614 23 5 22.1206 5 21.0263C5 19.932 3.88614 19.0331 2.5 19.0331C1.11386 19.0331 0 19.9125 0 21.0068C0 22.1011 1.11386 22.9805 2.5 23Z" fill="#4556ED"/>
</svg>
