<svg width="16" height="18" viewBox="0 0 16 18" fill="none" xmlns="http://www.w3.org/2000/svg">
<path d="M15.2 14.9343L14.6375 14.0624C14.525 13.8937 14.4688 13.7249 14.4688 13.528V7.67803C14.4688 6.01865 13.7657 4.47178 12.4719 3.31865C11.4313 2.39053 10.0813 1.7999 8.6469 1.6874V1.1249C8.6469 0.787402 8.36565 0.478027 8.00002 0.478027C7.66252 0.478027 7.35315 0.759277 7.35315 1.1249V1.65928C7.2969 1.65928 7.24065 1.65928 7.1844 1.6874C3.9219 2.05303 1.47502 4.66865 1.47502 7.79053V13.528C1.4469 13.8093 1.39065 13.9499 1.3344 14.0343L0.800024 14.9343C0.631274 15.2155 0.631274 15.553 0.800024 15.8343C0.968774 16.0874 1.25002 16.2562 1.5594 16.2562H7.38127V16.8749C7.38127 17.2124 7.66252 17.5218 8.02815 17.5218C8.36565 17.5218 8.67503 17.2405 8.67503 16.8749V16.2562H14.4688C14.7782 16.2562 15.0594 16.0874 15.2282 15.8343C15.3969 15.553 15.3969 15.2155 15.2 14.9343ZM2.2344 14.9905L2.43127 14.653C2.60002 14.3718 2.6844 14.0343 2.74065 13.6405V7.79053C2.74065 5.31553 4.7094 3.23428 7.32503 2.95303C8.92815 2.78428 10.5031 3.2624 11.6563 4.2749C12.6688 5.1749 13.2313 6.38428 13.2313 7.67803V13.528C13.2313 13.9499 13.3438 14.3437 13.5969 14.7374L13.7657 14.9905H2.2344Z" fill="#64748B"/>
</svg>
