<svg width="384" height="321" viewBox="0 0 384 321" fill="none" xmlns="http://www.w3.org/2000/svg">
<path d="M170.386 32.9889L89.1197 128.199H66.5133C62.9678 128.176 59.4972 127.358 56.4752 125.832C53.4533 124.307 50.9944 122.133 49.3636 119.544C47.8274 117.023 47.1266 114.214 47.3319 111.4C47.5372 108.586 48.6413 105.866 50.5329 103.515L118.937 23.3718C120.3 21.5119 122.109 19.8994 124.253 18.6319C126.397 17.3644 128.832 16.4685 131.409 15.9986C133.931 15.614 136.52 15.6426 139.028 16.0827C141.536 16.5228 143.914 17.3657 146.026 18.5632L170.386 32.9889ZM339.155 57.9936L243.467 2.8551C239.227 0.437707 233.994 -0.497986 228.916 0.253191C223.838 1.00437 219.329 3.38111 216.378 6.86226L186.172 42.1253L113.675 128.199H293.942C296.85 128.023 299.673 127.312 302.202 126.119C304.732 124.926 306.904 123.282 308.558 121.307L344.027 80.1131C346.966 76.6254 348.104 72.3214 347.19 68.1449C346.277 63.9683 343.387 60.2601 339.155 57.8333V57.9936Z" fill="#BFF6FF"/>
<path d="M345.6 96.1417H38.4C17.1923 96.1417 0 110.494 0 128.199V288.485C0 306.19 17.1923 320.543 38.4 320.543H345.6C366.808 320.543 384 306.19 384 288.485V128.199C384 110.494 366.808 96.1417 345.6 96.1417Z" fill="url(#paint0_linear_10_7252)"/>
<path d="M276.275 173.291H383.55V237.405H276.275C270.585 237.405 265.128 235.716 261.104 232.71C257.081 229.704 254.82 225.627 254.82 221.376V189.319C254.82 185.068 257.081 180.991 261.104 177.985C265.128 174.979 270.585 173.291 276.275 173.291Z" fill="url(#paint1_linear_10_7252)"/>
<defs>
<linearGradient id="paint0_linear_10_7252" x1="192" y1="96.1417" x2="192" y2="320.543" gradientUnits="userSpaceOnUse">
<stop offset="0.197917" stop-color="white"/>
<stop offset="1" stop-color="white" stop-opacity="0"/>
</linearGradient>
<linearGradient id="paint1_linear_10_7252" x1="384.079" y1="205.614" x2="226.744" y2="205.614" gradientUnits="userSpaceOnUse">
<stop stop-color="#EFD2F0"/>
<stop offset="1" stop-color="#EFD2F0" stop-opacity="0"/>
</linearGradient>
</defs>
</svg>
