<svg width="18" height="16" viewBox="0 0 18 16" fill="none" xmlns="http://www.w3.org/2000/svg">
<path d="M10.9687 0.574951H7.03123C3.43123 0.574951 0.506226 3.41558 0.506226 6.90308C0.506226 10.3906 2.75623 12.8375 8.26873 15.3125C8.40935 15.3687 8.52185 15.3968 8.66248 15.3968C8.85935 15.3968 9.0281 15.3406 9.19685 15.2281C9.4781 15.0593 9.64685 14.75 9.64685 14.4125V13.2031H10.9687C14.5687 13.2031 17.5219 10.3625 17.5219 6.87495C17.5219 3.38745 14.5687 0.574951 10.9687 0.574951ZM10.9687 11.9937H9.33748C8.8031 11.9937 8.3531 12.4437 8.3531 12.9781V14.0187C3.59998 11.825 1.74373 9.79995 1.74373 6.9312C1.74373 4.14683 4.10623 1.8687 7.03123 1.8687H10.9687C13.8656 1.8687 16.2562 4.14683 16.2562 6.9312C16.2562 9.71558 13.8656 11.9937 10.9687 11.9937Z" fill="#64748B"/>
</svg>
